<svg xmlns="http://www.w3.org/2000/svg" xmlns:xlink="http://www.w3.org/1999/xlink" width="44" height="44" viewBox="0 0 44 44">
  <metadata><?xpacket begin="﻿" id="W5M0MpCehiHzreSzNTczkc9d"?>
<x:xmpmeta xmlns:x="adobe:ns:meta/" x:xmptk="Adobe XMP Core 5.6-c140 79.160451, 2017/05/06-01:08:21        ">
   <rdf:RDF xmlns:rdf="http://www.w3.org/1999/02/22-rdf-syntax-ns#">
      <rdf:Description rdf:about=""/>
   </rdf:RDF>
</x:xmpmeta>
                                                                                                    
                                                                                                    
                                                                                                    
                                                                                                    
                                                                                                    
                                                                                                    
                                                                                                    
                                                                                                    
                                                                                                    
                                                                                                    
                                                                                                    
                                                                                                    
                                                                                                    
                                                                                                    
                                                                                                    
                                                                                                    
                                                                                                    
                                                                                                    
                                                                                                    
                                                                                                    
                           
<?xpacket end="w"?></metadata>
<defs>
    <style>
      .cls-1 {
        fill: url(#linear-gradient);
      }

      .cls-2 {
        fill: #fffcf9;
        fill-rule: evenodd;
      }
    </style>
    <linearGradient id="linear-gradient" x1="22" y1="44" x2="22" gradientUnits="userSpaceOnUse">
      <stop offset="0" stop-color="#4d9700"/>
      <stop offset="1" stop-color="#86d320"/>
    </linearGradient>
  </defs>
  <circle class="cls-1" cx="22" cy="22" r="22"/>
  <path class="cls-2" d="M35.007,29.547a0.944,0.944,0,0,0-.056-0.388,3.264,3.264,0,0,0-1.4-.979c-1.053-.59-2.123-1.163-3.158-1.773a3.8,3.8,0,0,0-1.643-.85c-1.126,0-2.771,3.343-3.768,3.343a3.971,3.971,0,0,1-1.589-.723,18.375,18.375,0,0,1-7.554-7.553,3.97,3.97,0,0,1-.723-1.589c0-1,3.342-2.64,3.342-3.768a3.8,3.8,0,0,0-.849-1.643c-0.609-1.032-1.182-2.106-1.774-3.158a3.264,3.264,0,0,0-.979-1.4,0.945,0.945,0,0,0-.388-0.056A8.22,8.22,0,0,0,11.9,9.58a4.866,4.866,0,0,0-1.961,2.253A7.058,7.058,0,0,0,9,15.268a14.225,14.225,0,0,0,1.275,4.839A17.264,17.264,0,0,0,11.8,23.34,31.173,31.173,0,0,0,20.668,32.2,17.252,17.252,0,0,0,23.9,33.738a14.224,14.224,0,0,0,4.838,1.275,7.057,7.057,0,0,0,3.435-.943,4.865,4.865,0,0,0,2.253-1.961A8.216,8.216,0,0,0,35.007,29.547Z"/>
</svg>
